<!-- card -->
<!-- #ea394e red -->
<!-- #5caa4b green -->
<!-- #008bf7 blue -->
<!-- #9d34e8 purple -->
<!-- #e54cae pink -->

<!-- shell -->
<!-- #fff1cb off-white -->
<!-- #e5eff9 light-blue -->
<!-- #aedfe2 darker-blue -->
<!-- #f6dac9 lighter-orange -->
<!-- #f8d1b2 light-orange -->
<!-- #fcba92 darker-orange -->
<!-- #c5e8d6 light-green -->
<!-- #e5daaa darker-green -->

<!-- shell / border -->
<!-- #cd7f32 bronze -->
<!-- #c0c0c0 silver -->
<!-- #ffd700 gold -->

<!-- gradients -->
<!-- #ffd200 #ff0087 / yellow pink -->
<!-- #008bf7 #58b448 / blue green -->
<!-- #f900bd #00a7f6 / pink blue -->
<!-- #ea394e #9d34e8 / red purple -->
<!-- #804a00 #cd7b26 / dark-bronze light-bronze -->
<!-- #71706e #b6b6b6 / dark-silver light-silver -->
<!-- #aa6c39 #ffae00 / dark-gold light-gold -->

<svg xmlns="http://www.w3.org/2000/svg" viewBox="0 0 750 1050">
  <style>
    <!-- this can be removed. Just used for colour testing -->
    svg { background-color: #0b112f; }

    #cb-egg-1 .cb-egg {
      animation: shake 3s infinite ease-out;
      transform-origin: 50%;
    }

    @keyframes shake {
      0% { transform: rotate(0deg); }
      65% { transform: rotate(0deg); }
      70% { transform: rotate(3deg); }
      75% { transform: rotate(0deg); }
      80% { transform: rotate(-3deg); }
      85% { transform: rotate(0deg); }
      90% { transform: rotate(3deg); }
      100% { transform: rotate(0deg); }
    }

    <!-- if black radial gradient (spotlight) then apply styles below -->
    <!-- #cb-egg-1 .cb-shadow { mix-blend-mode: luminosity; }
    #cb-egg-1 .cb-egg .cb-shell { mix-blend-mode: luminosity; fill: #e5eff9; } -->
  </style>

  <defs>
    <!-- diagonal card gradient -->
    <!-- stop-color will change based on gradient colour -->
    <linearGradient id="cb-egg-1-card-diagonal-gradient" y1="100%" gradientUnits="userSpaceOnUse">
      <stop offset="0" stop-color="#ffd200"/>
      <stop offset="1" stop-color="#ff0087"/>
    </linearGradient>

    <!-- black radial gradient (spotlight) -->
    <radialGradient id="cb-egg-1-card-radial-gradient" cx="50%" cy="45%" r="38%" gradientUnits="userSpaceOnUse">
      <stop offset="0" stop-opacity="0"/>
      <stop offset="0.25" stop-opacity="0"/>
      <stop offset="1" stop-color="#000" stop-opacity="1"/> 
    </radialGradient>

    <!-- rainbow card gradient -->
    <linearGradient id="cb-egg-1-card-rainbow-gradient" y1="100%" gradientUnits="userSpaceOnUse">
      <stop offset="0" stop-color="#93278f"/>
      <stop offset="0.2" stop-color="#662d91"/>
      <stop offset="0.4" stop-color="#3395d4"/>
      <stop offset="0.5" stop-color="#39b54a"/>
      <stop offset="0.6" stop-color="#fcee21"/>
      <stop offset="0.8" stop-color="#fbb03b"/>
      <stop offset="1" stop-color="#ed1c24"/>
    </linearGradient>

    <!-- rainbow shell gradient -->
     <linearGradient id="cb-egg-1-shell-rainbow-gradient" x1="39%" y1="59%" x2="62%" y2="35%" gradientUnits="userSpaceOnUse">
      <stop offset="0" stop-color="#3fa9f5"/>
      <stop offset="0.38" stop-color="#39b54a"/>
      <stop offset="0.82" stop-color="#fcee21"/>
      <stop offset="1" stop-color="#fbb03b"/>
    </linearGradient>
  </defs>

  <g id="cb-egg-1">
    <!-- border -->
    <rect fill="#fff" width="750" height="1050" rx="37.5"/>
    <!-- if rainbow -->
    <!-- <rect style="fill: url(#cb-egg-1-card-rainbow-gradient)" fill="#fff" width="100%" height="100%" rx="37.5"/> -->

    <!-- card colour -->
    <!-- if solid colour - colour can change with fill property -->
    <rect fill="#008bf7" x="30" y="30" width="690" height="990" rx="37.5"/>
    <!-- if gradient -->
    <!-- <rect x="30" y="30" width="690" height="990" rx="37.5" style="fill: url(#cb-egg-1-card-diagonal-gradient)" /> -->
    <!-- if rainbow - use a low opacity black card colour (border shows the rainbow) -->
    <!-- <rect fill="#000" x="30" y="30" width="690" height="990" rx="37.5" opacity="0.05" /> -->

    <!-- if black radial gradient -->
    <!-- <rect width="750" height="1050" rx="37.5" style="mix-blend-mode: hard-light; fill: url(#cb-egg-1-card-radial-gradient)"/> -->

    <!-- text -->
    <text fill="#fff" font-family="'Arial Black', Arial" font-size="72px" font-weight="800" text-anchor="middle" x="50%" y="14%">LUSD</text>
    <text fill="#fff" font-family="'Arial Black', Arial" font-size="30px" font-weight="800" text-anchor="middle" x="50%" y="19%">ID: 1</text>

    <!-- shadow below egg -->
    <ellipse class="cb-shadow" fill="#0a102e" cx="375" cy="618.75" rx="100" ry="19"/>

    <g class="cb-egg">
      <!-- if standard shell -->
      <path class="cb-shell" fill="#fff1cb" d="M239.76,481.87c0,75.6,60.66,136.88,135.49,136.88s135.49-61.28,135.49-136.88S450.08,294.75,375.25,294.75C304.56,294.75,239.76,406.27,239.76,481.87Z"/>
      <!-- if rainbow shell -->
      <!-- <path style="fill: url(#cb-egg-1-shell-rainbow-gradient)" class="cb-shell" fill="#fff1cb" d="M239.76,481.87c0,75.6,60.66,136.88,135.49,136.88s135.49-61.28,135.49-136.88S450.08,294.75,375.25,294.75C304.56,294.75,239.76,406.27,239.76,481.87Z"/> -->

      <path style="mix-blend-mode: soft-light" fill="#fff" d="M298.26,367.33c-10,22.65-9.13,49.22,5.42,60.19,16.26,12.25,39.81,15,61.63-5.22,20.95-19.43,39.13-73.24,2.07-92.5C347.08,319.25,309.31,342.25,298.26,367.33Z"/>
      <path style="mix-blend-mode: soft-light" fill="#000" d="M443.61,326.7c19.9,34.86,31.91,75.58,31.91,109.2,0,75.6-60.67,136.88-135.5,136.88a134.08,134.08,0,0,1-87.53-32.41C274.2,586.72,320.9,618.78,375,618.78c74.83,0,135.5-61.28,135.5-136.88C510.52,431.58,483.64,365.37,443.61,326.7Z"/>
    </g>

    <!-- text -->
    <text fill="#fff" font-family="'Arial Black', Arial" font-size="40px" font-weight="800" text-anchor="middle" x="50%" y="72%">BOND AMOUNT</text>
    <text fill="#fff" font-family="'Arial Black', Arial" font-size="64px" font-weight="800" text-anchor="middle" x="50%" y="81%">1337</text>
    <text fill="#fff" font-family="'Arial Black', Arial" font-size="30px" font-weight="800" text-anchor="middle" x="50%" y="91%" opacity="0.6">JANUARY 1, 1970</text>
  </g>
</svg>
