<svg xmlns="http://www.w3.org/2000/svg" viewBox="0 0 750 1050">
  <!-- place these elements before the closing </svg> tag, or before the closing </g> tag -->

  <!-- LLAMA -->
  <!-- white background - match fill to card border colour -->
  <rect style="fill: #fff" x="632" y="932" width="118" height="118" rx="37.5"/>
  <!-- llama body - change fill for rarity -->
  <path style="fill: #cd7f32" d="M710.26,979.9c-.45-2.6-2.28.21-4.93,2.39a5.57,5.57,0,0,0-1.3-.15H678.15V956.22a12.7,12.7,0,0,1-7.28-2.62,2.62,2.62,0,0,0-2.62,2.62v2.08a6.5,6.5,0,0,0-5.82,6.37h-2.81a3,3,0,0,0-3,3v1.89A4.4,4.4,0,0,0,661,974h1.41v37.16a1.86,1.86,0,0,0,1.86,1.86h4.44a1.86,1.86,0,0,0,1.86-1.86v-6.29h2.91v6.29a1.85,1.85,0,0,0,1.85,1.86h4.44a1.86,1.86,0,0,0,1.86-1.86v-6.29h8.74v6.29a1.85,1.85,0,0,0,1.85,1.86h4.44a1.86,1.86,0,0,0,1.86-1.86v-6.29h2.91v6.29a1.86,1.86,0,0,0,1.86,1.86h4.44a1.85,1.85,0,0,0,1.85-1.86V987.7c0-.12,0-.23,0-.34A12.13,12.13,0,0,0,710.26,979.9Z"/>
  <path style="fill: #fff;mix-blend-mode: soft-light" d="M703.19,982.14h-25a12.52,12.52,0,0,0,25,0Z"/>
  <path style="fill: #fff;mix-blend-mode: soft-light" d="M699.22,982.14H682.53a8.35,8.35,0,0,0,16.69,0Z"/>
  <path style="fill: #fff;mix-blend-mode: soft-light" d="M695.05,982.14H686.7a4.18,4.18,0,0,0,8.35,0Z"/>
  <circle cx="669.7" cy="965.54" r="2.33"/>

  <!-- TREASURE CHEST -->
  <rect style="fill: #fff" y="932" width="118" height="118" rx="37.5"/>
  <rect style="fill: #a55529" x="36.28" y="963.98" width="54.44" height="19.21" rx="9.61"/>
  <rect style="fill: #843b17" x="36.28" y="983.19" width="54.44" height="19.21" rx="9.61"/>
  <!-- treasure chest trimming - fill could be used for rarities (match with other comment below) -->
  <rect style="fill: gold" x="36.28" y="983.19" width="7.69" height="20.49" rx="3.84"/>
  <rect style="fill: gold" x="83.03" y="983.19" width="7.69" height="20.49" rx="3.84"/>
  <rect style="fill: #000; mix-blend-mode: soft-light" x="36.28" y="983.19" width="7.69" height="20.49" rx="3.84"/>
  <rect style="fill: #000; mix-blend-mode: soft-light" x="83.03" y="983.19" width="7.69" height="20.49" rx="3.84"/>
  <!-- treasure chest trimming - fill could be used for rarities -->
  <path style="fill: gold" d="M90.61,980.24a3.8,3.8,0,0,0,.11-.89V966.54a3.85,3.85,0,0,0-7.69,0v12.81H70.14a4,4,0,0,0-3.93-3.2H60.79a4,4,0,0,0-3.93,3.2H44V966.54a3.85,3.85,0,0,0-7.69,0v12.81a3.8,3.8,0,0,0,.11.89A3.84,3.84,0,0,0,38.84,987h18a4,4,0,0,0,3.93,3.21h5.42A4,4,0,0,0,70.14,987h18a3.84,3.84,0,0,0,2.45-6.79Z"/>
  <ellipse style="fill: #000" cx="63.45" cy="981.34" rx="1.94" ry="1.96"/>
  <path style="fill: #000" d="M60.87,986.07l1.92-4.68a.72.72,0,0,1,1.33,0L66,986.07a.72.72,0,0,1-.66,1H61.53A.72.72,0,0,1,60.87,986.07Z"/>

  <!-- LEG BAND -->
  <rect style="fill: #5bb2e4" x="377.33" y="638" width="17.3" height="10" rx="2"/>
  <path style="fill: #705ed6" d="M392.63,648h-13.3a2,2,0,0,1-2-2v-3h17.3v3A2,2,0,0,1,392.63,648Z"/>
  <rect style="fill: #2241c4" x="377.33" y="641.22" width="17.3" height="3.57"/>
</svg>
